<?xml version="1.0" encoding="utf-8"?>
<svg width="35.75px" height="47.666748px" viewBox="0 0 35.75 47.666748" version="1.1" xmlns:xlink="http://www.w3.org/1999/xlink" xmlns="http://www.w3.org/2000/svg">
  <defs>
    <path d="M0 0L35.75 0L35.75 47.6666L0 47.6666L0 0Z" id="path_1" />
    <clipPath id="mask_1">
      <use xlink:href="#path_1" />
    </clipPath>
  </defs>
  <g id="logo-wo-circle">
    <path d="M0 0L35.75 0L35.75 47.6666L0 47.6666L0 0Z" id="Background" fill="#FFFFFF" fill-opacity="0" fill-rule="evenodd" stroke="none" />
    <g clip-path="url(#mask_1)">
      <path d="M33.2788 34.0131C32.4001 33.2895 31.2469 32.614 29.9289 32.0833C29.1601 32.3728 28.1717 32.7105 27.0184 33C27.3479 33.1447 27.6225 33.3377 27.8971 33.5307C29.5995 34.7368 30.4781 36.6184 30.4781 39.1272C30.4781 40.864 30.0388 42.3114 29.1601 43.5175C28.2815 44.7237 27.293 45.5438 26.1947 45.9781C25.1513 46.4123 23.7235 46.6052 22.0211 46.6052C20.0991 46.6052 18.7262 46.5088 17.7926 46.3158C16.914 46.1228 16.3648 45.8816 16.255 45.5438C16.0902 45.2544 16.0353 43.807 16.0353 41.25L16.2001 33.9167C16.2001 33.1447 16.3099 32.5175 16.4197 32.1316C16.4746 32.0351 16.4746 31.9386 16.5296 31.8421C17.573 31.7456 18.5065 31.6974 19.3852 31.6974C19.7147 31.6974 21.9113 31.6974 25.2611 30.8772C25.4259 30.8289 25.5906 30.7807 25.7554 30.7325C25.7554 30.7325 25.7554 30.7325 25.7554 30.7325C26.3045 30.5877 26.8537 30.3947 27.4028 30.25C27.4028 30.25 27.4028 30.25 27.4578 30.25C27.4578 30.25 27.4578 30.25 27.4578 30.25C28.2266 30.0088 28.9405 29.7193 29.5445 29.4298C29.5995 29.4298 29.5995 29.3816 29.6544 29.3816C30.6978 28.8509 31.5764 28.3202 32.1805 27.693C33.4435 26.4386 34.1025 24.943 34.1025 23.2544C34.1025 21.0351 33.114 19.2982 31.192 18.0439C29.215 16.7895 26.634 16.114 23.2842 16.114C22.3506 16.114 20.3737 16.1623 17.2435 16.307C15.8706 16.3553 14.3329 16.4035 12.7404 16.4035L10.1045 16.4035C9.77496 16.4035 9.50038 16.4035 9.28072 16.4517C8.89631 16.5 8.5119 16.6447 8.5119 16.9342C8.5119 17.2719 8.73156 17.3684 8.8414 17.4167C8.8414 17.4167 8.89631 17.4167 8.89631 17.4167C8.89631 17.4167 8.89631 17.4167 8.89631 17.4167L8.89631 17.4167C9.22581 17.5614 9.5553 17.7061 9.72005 17.7544C9.72005 17.7544 9.77496 17.7544 9.77496 17.7544C9.77496 17.7544 9.77496 17.7544 9.77496 17.7544C9.77496 17.7544 9.77496 17.7544 9.77496 17.7544C10.0495 17.8991 10.2143 17.9956 10.379 18.1886C10.7634 18.6228 11.0929 19.636 11.3126 21.1798C11.4224 22.0965 11.5323 23.1579 11.5872 24.4123C12.7953 25.5702 14.4428 26.8728 16.3099 27.5965L16.3099 26.1491C16.3099 24.0263 16.3648 21.2281 16.5296 17.7544C18.2319 17.2719 19.7147 17.0307 21.0876 17.0307C23.3391 17.0307 25.2611 17.5614 26.7988 18.6228C28.3364 19.8289 29.1052 21.421 29.1052 23.6403C29.1052 24.75 28.9405 25.6667 28.5561 26.4868C28.1717 27.3553 27.6225 28.0307 26.8537 28.6096C21.2523 31.9868 15.5411 29.9605 15.1567 29.8158C13.9485 29.3333 12.7953 28.7061 11.6421 27.8377C11.0929 27.4035 10.5438 26.9693 10.0495 26.4386C7.24885 23.6403 5.82105 20.0219 5.82105 15.5351C5.82105 12.9298 6.31528 10.4693 7.35868 8.15351C8.34716 5.88597 9.77496 4.10088 11.5872 2.84649C13.3994 1.59211 15.4313 1.01316 17.6279 1.01316C20.0991 1.01316 22.4055 1.78509 24.5472 3.37719C26.634 4.9693 28.2815 7.04386 29.4896 9.55263C29.8191 10.2281 30.0937 10.5658 30.4232 10.5658C30.6429 10.5658 30.7527 10.5175 30.8076 10.4211C30.8625 10.3246 30.8625 10.0351 30.8625 9.55263L30.3134 1.35088C30.2584 0.77193 30.0937 0.482456 29.7093 0.482456C29.3798 0.482456 29.1052 0.675438 28.9405 1.0614C28.7757 1.35088 28.2266 1.83333 27.2381 2.60526C25.5357 1.73684 23.8333 1.0614 22.1859 0.627193C20.5384 0.192982 18.9458 1.35477e-14 17.3533 1.35477e-14C14.3879 -1.15026e-07 11.5323 0.675438 8.78648 2.07456C5.98579 3.47368 3.84409 5.40351 2.30645 7.91228C0.768817 10.421 0 13.2193 0 16.307C0 19.4912 0.768817 22.2412 2.36137 24.6053C3.95392 26.9693 6.09562 28.8026 8.78648 30.1535C9.72005 30.5877 10.6536 30.9737 11.5872 31.2632C11.5323 32.807 11.4773 34.7851 11.4773 37.1974C11.4773 39.7544 11.3675 41.7324 11.1478 43.0351C10.9282 44.3377 10.5987 45.2061 10.2143 45.6403C9.77496 46.0746 9.2258 46.3158 8.5119 46.4605C7.30376 46.6535 6.64477 46.7982 6.42511 46.8465C6.26037 46.8947 6.15054 47.0395 6.15054 47.1842C6.15054 47.4737 6.48003 47.6184 7.13901 47.6184C9.06106 47.5219 12.7953 47.4737 18.2869 47.4737C18.3967 47.4737 18.9458 47.4737 19.9892 47.5219C21.6367 47.6184 22.8448 47.6184 23.6137 47.6184C27.6225 47.6184 30.6428 46.7017 32.6747 44.9167C34.7066 43.1316 35.75 41.1535 35.75 39.0307C35.75 37.1009 34.9263 35.4123 33.2788 34.0131L33.2788 34.0131Z" id="Shape" fill="#FFFFFF" stroke="none" />
    </g>
  </g>
</svg>